HIERARCHY
ROOT Hips
{
    OFFSET   0.000000   0.000000   0.000000
    CHANNELS 6 Xposition Yposition Zposition Zrotation Xrotation Yrotation
    JOINT Chest
    {
        OFFSET   0.000000   8.007230   0.000000
        CHANNELS 3 Zrotation Xrotation Yrotation
        JOINT Chest2
        {
            OFFSET   0.000000  22.077100   0.000000
            CHANNELS 3 Zrotation Xrotation Yrotation
            JOINT Neck
            {
                OFFSET   0.000000  23.254800   0.000000
                CHANNELS 3 Zrotation Xrotation Yrotation
                JOINT Head
                {
                    OFFSET   0.000010  14.370000   1.956600
                    CHANNELS 3 Zrotation Xrotation Yrotation
                    End Site
                    {
                        OFFSET   0.000000  19.566000   0.000000
                    }
                }
            }
            JOINT LeftCollar
            {
                OFFSET   3.911900  19.017000  -0.467062
                CHANNELS 3 Zrotation Xrotation Yrotation
                JOINT LeftShoulder
                {
                    OFFSET  10.383700   0.000000   0.000000
                    CHANNELS 3 Zrotation Xrotation Yrotation
                    JOINT LeftElbow
                    {
                        OFFSET  26.662100   0.001193   0.000835
                        CHANNELS 3 Zrotation Xrotation Yrotation
                        JOINT LeftWrist
                        {
                            OFFSET  28.869000  -0.000058  -0.000075
                            CHANNELS 3 Zrotation Xrotation Yrotation
                            JOINT LeftFinger0
                            {
                                OFFSET   2.044660  -2.323460   3.252850
                                CHANNELS 3 Zrotation Xrotation Yrotation
                                JOINT LeftFinger01
                                {
                                    OFFSET   3.088130   0.000000   0.000000
                                    CHANNELS 3 Zrotation Xrotation Yrotation
                                    JOINT LeftFinger02
                                    {
                                        OFFSET   2.639450   0.000000   0.000000
                                        CHANNELS 3 Zrotation Xrotation Yrotation
                                        End Site
                                        {
                                            OFFSET   2.582190   0.000000   0.000000
                                        }
                                    }
                                }
                            }
                            JOINT LeftFinger1
                            {
                                OFFSET   8.364480   0.000000   3.252850
                                CHANNELS 3 Zrotation Xrotation Yrotation
                                JOINT LeftFinger11
                                {
                                    OFFSET   4.646920   0.000000   0.000000
                                    CHANNELS 3 Zrotation Xrotation Yrotation
                                    JOINT LeftFinger12
                                    {
                                        OFFSET   2.323460   0.000000   0.000000
                                        CHANNELS 3 Zrotation Xrotation Yrotation
                                        End Site
                                        {
                                            OFFSET   2.273050   0.000000   0.000000
                                        }
                                    }
                                }
                            }
                            JOINT LeftFinger2
                            {
                                OFFSET   8.364490   0.000016   1.078090
                                CHANNELS 3 Zrotation Xrotation Yrotation
                                JOINT LeftFinger21
                                {
                                    OFFSET   5.111620   0.000000   0.000000
                                    CHANNELS 3 Zrotation Xrotation Yrotation
                                    JOINT LeftFinger22
                                    {
                                        OFFSET   2.788150   0.000012   0.000000
                                        CHANNELS 3 Zrotation Xrotation Yrotation
                                        End Site
                                        {
                                            OFFSET   2.727660   0.000000   0.000000
                                        }
                                    }
                                }
                            }
                            JOINT LeftFinger3
                            {
                                OFFSET   7.899780   0.000014  -1.078090
                                CHANNELS 3 Zrotation Xrotation Yrotation
                                JOINT LeftFinger31
                                {
                                    OFFSET   4.646930   0.000000   0.000000
                                    CHANNELS 3 Zrotation Xrotation Yrotation
                                    JOINT LeftFinger32
                                    {
                                        OFFSET   2.323470   0.000000   0.000000
                                        CHANNELS 3 Zrotation Xrotation Yrotation
                                        End Site
                                        {
                                            OFFSET   2.273050   0.000000   0.000000
                                        }
                                    }
                                }
                            }
                            JOINT LeftFinger4
                            {
                                OFFSET   7.435090   0.000000  -3.252850
                                CHANNELS 3 Zrotation Xrotation Yrotation
                                JOINT LeftFinger41
                                {
                                    OFFSET   3.717550   0.000000   0.000000
                                    CHANNELS 3 Zrotation Xrotation Yrotation
                                    JOINT LeftFinger42
                                    {
                                        OFFSET   1.858770   0.000000   0.000000
                                        CHANNELS 3 Zrotation Xrotation Yrotation
                                        End Site
                                        {
                                            OFFSET   1.818440   0.000000   0.000000
                                        }
                                    }
                                }
                            }
                        }
                    }
                }
            }
            JOINT RightCollar
            {
                OFFSET  -3.911900  19.017000  -0.467063
                CHANNELS 3 Zrotation Xrotation Yrotation
                JOINT RightShoulder
                {
                    OFFSET -10.383700   0.000023   0.000000
                    CHANNELS 3 Zrotation Xrotation Yrotation
                    JOINT RightElbow
                    {
                        OFFSET -26.662100   0.001246   0.001011
                        CHANNELS 3 Zrotation Xrotation Yrotation
                        JOINT RightWrist
                        {
                            OFFSET -28.869000  -0.000026  -0.000078
                            CHANNELS 3 Zrotation Xrotation Yrotation
                            JOINT RightFinger0
                            {
                                OFFSET  -2.044660  -2.323490   3.252850
                                CHANNELS 3 Zrotation Xrotation Yrotation
                                JOINT RightFinger01
                                {
                                    OFFSET  -3.088130   0.000000   0.000000
                                    CHANNELS 3 Zrotation Xrotation Yrotation
                                    JOINT RightFinger02
                                    {
                                        OFFSET  -2.639460   0.000000   0.000000
                                        CHANNELS 3 Zrotation Xrotation Yrotation
                                        End Site
                                        {
                                            OFFSET  -2.582190   0.000000   0.000000
                                        }
                                    }
                                }
                            }
                            JOINT RightFinger1
                            {
                                OFFSET  -8.364480   0.000000   3.252850
                                CHANNELS 3 Zrotation Xrotation Yrotation
                                JOINT RightFinger11
                                {
                                    OFFSET  -4.646920   0.000000   0.000000
                                    CHANNELS 3 Zrotation Xrotation Yrotation
                                    JOINT RightFinger12
                                    {
                                        OFFSET  -2.323470   0.000000   0.000000
                                        CHANNELS 3 Zrotation Xrotation Yrotation
                                        End Site
                                        {
                                            OFFSET  -2.273050   0.000000   0.000000
                                        }
                                    }
                                }
                            }
                            JOINT RightFinger2
                            {
                                OFFSET  -8.364480   0.000000   1.078090
                                CHANNELS 3 Zrotation Xrotation Yrotation
                                JOINT RightFinger21
                                {
                                    OFFSET  -5.111620   0.000000   0.000000
                                    CHANNELS 3 Zrotation Xrotation Yrotation
                                    JOINT RightFinger22
                                    {
                                        OFFSET  -2.788160   0.000000   0.000000
                                        CHANNELS 3 Zrotation Xrotation Yrotation
                                        End Site
                                        {
                                            OFFSET  -2.727660   0.000000   0.000000
                                        }
                                    }
                                }
                            }
                            JOINT RightFinger3
                            {
                                OFFSET  -7.899780   0.000000  -1.078090
                                CHANNELS 3 Zrotation Xrotation Yrotation
                                JOINT RightFinger31
                                {
                                    OFFSET  -4.646930   0.000000   0.000000
                                    CHANNELS 3 Zrotation Xrotation Yrotation
                                    JOINT RightFinger32
                                    {
                                        OFFSET  -2.323470   0.000000   0.000000
                                        CHANNELS 3 Zrotation Xrotation Yrotation
                                        End Site
                                        {
                                            OFFSET  -2.273050   0.000000   0.000000
                                        }
                                    }
                                }
                            }
                            JOINT RightFinger4
                            {
                                OFFSET  -7.435090   0.000000  -3.252850
                                CHANNELS 3 Zrotation Xrotation Yrotation
                                JOINT RightFinger41
                                {
                                    OFFSET  -3.717550   0.000000   0.000000
                                    CHANNELS 3 Zrotation Xrotation Yrotation
                                    JOINT RightFinger42
                                    {
                                        OFFSET  -1.858760   0.000000   0.000000
                                        CHANNELS 3 Zrotation Xrotation Yrotation
                                        End Site
                                        {
                                            OFFSET  -1.818440   0.000000   0.000000
                                        }
                                    }
                                }
                            }
                        }
                    }
                }
            }
        }
    }
    JOINT LeftHip
    {
        OFFSET   9.783010   0.000000   0.000000
        CHANNELS 3 Zrotation Xrotation Yrotation
        JOINT LeftKnee
        {
            OFFSET   0.000073 -41.789100   0.001749
            CHANNELS 3 Zrotation Xrotation Yrotation
            JOINT LeftAnkle
            {
                OFFSET   0.000111 -41.133200  -0.000179
                CHANNELS 3 Zrotation Xrotation Yrotation
                JOINT LeftToe
                {
                    OFFSET   0.000000  -6.358960  14.674500
                    CHANNELS 3 Zrotation Xrotation Yrotation
                    End Site
                    {
                        OFFSET   0.000000   0.000000   3.913200
                    }
                }
            }
        }
    }
    JOINT RightHip
    {
        OFFSET  -9.783010   0.000000   0.000000
        CHANNELS 3 Zrotation Xrotation Yrotation
        JOINT RightKnee
        {
            OFFSET   0.000424 -41.789200   0.005205
            CHANNELS 3 Zrotation Xrotation Yrotation
            JOINT RightAnkle
            {
                OFFSET   0.000000 -41.133200  -0.000155
                CHANNELS 3 Zrotation Xrotation Yrotation
                JOINT RightToe
                {
                    OFFSET   0.000000  -6.358960  14.674500
                    CHANNELS 3 Zrotation Xrotation Yrotation
                    End Site
                    {
                        OFFSET   0.000000   0.000000   3.913200
                    }
                }
            }
        }
    }
}
MOTION
Frames: 4
Frame Time:   0.016667
 -0.515037  89.323400   1.382090  -2.989310 -18.353200   3.231350  -0.743003  11.931300   4.843930  -2.627480  23.750700  10.190700   1.392850   0.626504  -0.016407   2.289460   1.268170  -7.135690  -4.109370  -5.668400  -0.372612 -67.302500  24.416700  -6.701940  -2.393690  -9.287840 -19.563200  15.595600 -13.855100   7.645290  47.748700  45.055900 -82.424600 -30.606100  -0.002883   0.002402 -10.303000  -0.002586  -0.001489 -37.594600   5.543110  -7.152330 -31.041900   0.013282  -0.001374 -21.729300   0.006910   0.000906 -31.200700  -2.204120   3.634510 -46.906700   0.010238   0.001579 -31.239900   0.001206   0.012213 -31.280500  -2.209270   3.631400 -47.027100   0.010106   0.000632 -31.320000   0.003312   0.010699 -40.483900  -2.761880   3.231220 -60.841400  -0.007991   0.003194 -40.520400  -0.000247  -0.003203   7.586280  -3.230400   9.374060  47.212400   1.240900  54.513000 -44.028600 -24.555900  53.978500 -47.269000  34.914700  21.360800 -26.534000  38.007900  57.442600  59.948000  -0.099269  -0.017561  33.384500  -0.041589   0.052465  84.052000   5.006100   0.719956  68.772300  -0.045720   0.111892  51.579200   0.029405   0.084442  89.882300   0.196377   0.103297  92.050600  -0.020372   0.140204  69.037900   0.084748   0.058247  89.203400  -5.048670  -0.080516  92.530800  -0.034153   0.157117  69.398000   0.090640   0.071280  86.164300 -10.037600  -0.464769 108.002000  -0.036560   0.115483  80.581300   0.274346   0.063343   3.489370  21.708100   3.335770   1.701970   0.094474  -0.233277  -1.990890  -4.359200   0.906463  -0.000000   0.000000   0.000000   5.888000  20.274300  -9.167180  -0.794212   5.070480  -9.352430  -0.142922  -7.842260   0.548345   0.000000   0.000000  -0.000000
 -0.499836  89.329000   1.342970  -3.173920 -18.362100   2.766480  -0.682552  11.862400   4.787930  -2.482320  23.620500  10.056300   1.457430   0.741732  -0.020669   2.395680   1.500950  -6.930090  -4.159210  -5.612270  -0.372414 -67.395900  24.420400  -6.694550  -2.311050  -9.244120 -19.455500  15.661200 -13.963900   7.689280  47.725200  45.073000 -82.564700 -30.585200  -0.002868   0.002362 -10.292600  -0.002587  -0.001494 -37.659600   5.576780  -7.176470 -31.099000   0.013292  -0.001317 -21.769300   0.006847   0.000958 -31.254400  -2.192190   3.606520 -46.985500   0.010266   0.001635 -31.292400   0.001158   0.012204 -31.335300  -2.197290   3.603420 -47.107200   0.010143   0.000695 -31.373300   0.003269   0.010700 -40.576800  -2.747590   3.203890 -60.980900  -0.007978   0.003191 -40.613300  -0.000220  -0.003158   7.534540  -3.352440   9.376530  46.129100   1.306140  55.181000 -43.634100 -24.382400  53.137700 -27.667500  43.976700   8.441660 -24.838600  36.461600  53.713000  61.892600   0.059017  -0.110117  34.560500   0.019623  -0.041167  79.097100   3.819680   0.917216  64.702900  -0.092811   0.149817  48.527000   0.024270   0.127088  86.954900   0.495186   0.192355  88.039200  -0.046857   0.187964  66.029200   0.104562   0.097674  86.682500  -5.062930  -0.324234  88.756700  -0.079509   0.202989  66.567300   0.104553   0.119847  75.977000  -9.694730  -2.043390 101.216000  -0.102186   0.269758  73.502500   0.313724   0.158348   3.515900  21.787000   3.349350   1.679850   0.072354   0.024583  -1.957290  -4.386620   1.065960   0.000000   0.000000   0.000000   5.916870  20.252400  -9.073070  -0.849066   5.073420  -9.123920  -0.130493  -7.791610   0.657930  -0.000000   0.000000   0.000000
 -0.493272  89.333100   1.307460  -3.371420 -18.366500   2.273000  -0.621335  11.785900   4.754770  -2.339020  23.474600   9.967220   1.523590   0.862486  -0.022884   2.504570   1.744900  -6.779370  -4.201370  -5.579700  -0.438108 -67.481400  24.458400  -6.675800  -2.237440  -9.268060 -19.355300  15.613800 -13.950500   7.673650  47.805900  45.120600 -82.712900 -30.539200  -0.002883   0.002332 -10.269600  -0.002589  -0.001497 -37.648100   5.617250  -7.227760 -31.096400   0.013302  -0.001260 -21.767500   0.006788   0.001012 -31.257200  -2.160360   3.552910 -46.984400   0.010297   0.001688 -31.291600   0.001111   0.012196 -31.338200  -2.165440   3.549820 -47.106300   0.010178   0.000759 -31.372700   0.003228   0.010700 -40.587100  -2.708300   3.155490 -60.995600  -0.007964   0.003185 -40.623000  -0.000193  -0.003112   7.484110  -3.521860   9.325680  45.183300   1.243820  55.956100 -43.331800 -24.096300  52.304000  -4.385890  48.335200  -7.827960 -23.657600  34.532400  49.651900  61.828100   0.135811  -0.220372  34.517400   0.052489  -0.084690  71.403900   1.982110   0.691001  58.387900  -0.096755   0.127170  43.788800   0.000730   0.119024  81.405500   0.335660   0.156745  81.741300  -0.061255   0.163140  61.305900   0.079551   0.096750  82.282300  -5.066550  -0.711175  83.075100  -0.097821   0.167640  62.306200   0.071255   0.118505  64.080700  -9.741710  -4.543970  91.838700  -0.123700   0.279886  63.566800   0.218027   0.174256   3.543070  21.874000   3.368110   1.655510   0.031082   0.292183  -1.920340  -4.406850   1.235170  -0.000000   0.000000   0.000000   5.944900  20.208200  -9.007330  -0.906955   5.089740  -8.802990  -0.118470  -7.737760   0.737360   0.000000   0.000000  -0.000000
 -0.492334  89.338300   1.273230  -3.565600 -18.357300   1.787950  -0.566665  11.702700   4.742360  -2.215300  23.313500   9.925280   1.596040   0.967929  -0.023771   2.624110   1.957840  -6.712790  -4.241450  -5.560630  -0.545998 -67.543300  24.522900  -6.664120  -2.158310  -9.290830 -19.275800  15.562000 -13.915200   7.651160  47.874300  45.160300 -82.802300 -30.487600  -0.002898   0.002306 -10.243800  -0.002589  -0.001500 -37.628400   5.654020  -7.282620 -31.081700   0.013313  -0.001204 -21.757200   0.006729   0.001065 -31.252600  -2.125060   3.496620 -46.976400   0.010328   0.001741 -31.286300   0.001065   0.012189 -31.334800  -2.130090   3.493570 -47.100100   0.010213   0.000822 -31.368600   0.003187   0.010701 -40.592700  -2.664520   3.105530 -60.997700  -0.007949   0.003180 -40.624400  -0.000165  -0.003066   7.428500  -3.702700   9.236060  44.398300   1.191410  56.455600 -43.043600 -23.715200  51.502700  16.886200  47.900600 -22.691400 -24.332900  33.462000  46.580700  61.374300   0.158590  -0.290065  34.215200   0.060975  -0.100781  63.181900   0.105066   0.171154  51.657200  -0.097319   0.083972  38.742800  -0.018407   0.094090  74.995900  -0.147592  -0.028882  74.825600  -0.067476   0.114382  56.119200   0.040032   0.090284  77.217100  -5.071470  -1.176960  77.011700  -0.103400   0.106583  57.758800   0.023543   0.109112  53.445600 -10.034300  -7.157980  82.569400  -0.127786   0.281332  54.267400   0.080852   0.176528   3.569130  21.925400   3.386390   1.633270   0.002241   0.537532  -1.880380  -4.427270   1.418820  -0.000000   0.000000   0.000000   5.966410  20.147000  -8.948600  -0.958593   5.105860  -8.487380  -0.104362  -7.672230   0.829518   0.000000   0.000000   0.000000
